<?xml version="1.0" encoding="UTF-8" standalone="no"?>
<!DOCTYPE svg PUBLIC "-//W3C//DTD SVG 1.1//EN" "http://www.w3.org/Graphics/SVG/1.1/DTD/svg11.dtd">
<svg width="100%" height="100%" viewBox="0 0 24 24" version="1.1" xmlns="http://www.w3.org/2000/svg" xmlns:xlink="http://www.w3.org/1999/xlink" xml:space="preserve" xmlns:serif="http://www.serif.com/" style="fill-rule:evenodd;clip-rule:evenodd;stroke-linejoin:round;stroke-miterlimit:2;">
    <g id="icons" transform="matrix(1,0,0,1.09791,0,-1.15401)">
        <g id="cart">
            <path d="M20,13L4,13C3.3,13 2.9,13.6 3,14.2L4.4,20.4C4.6,21.3 5.4,22 6.4,22L17.5,22C18.5,22 19.3,21.3 19.5,20.4L20.9,14.2C21.1,13.6 20.6,13 20,13ZM11,18C11,18.5 10.6,19 10,19C9.4,19 9,18.5 9,18L9,16C9,15.5 9.4,15 10,15C10.6,15 11,15.5 11,16L11,18ZM15,18C15,18.5 14.6,19 14,19C13.4,19 13,18.5 13,18L13,16C13,15.5 13.4,15 14,15C14.6,15 15,15.5 15,16L15,18Z" style="fill:white;fill-rule:nonzero;"/>
            <path d="M21,8L18.8,8L16.9,3.2C16.5,2.2 15.3,1.7 14.3,2.1C13.3,2.5 12.8,3.7 13.2,4.7L14.5,8L9.5,8L10.8,4.7C11.2,3.7 10.7,2.5 9.7,2.1C8.7,1.7 7.5,2.2 7.1,3.2L5.2,8L3,8C1.9,8 1,8.9 1,10L1,11C1,11.6 1.4,12 2,12L22,12C22.6,12 23,11.6 23,11L23,10C23,8.9 22.1,8 21,8Z" style="fill:white;fill-rule:nonzero;"/>
        </g>
    </g>
</svg>
